# xmcd
# Track frame offsets:
# 150
# 21924
# 43568
# 70603
# 99744
# 134279
# 189019
# 215229
# 247991
# 284924
#
# Disc length: 4410 seconds
# Revision: 0
# Processed by: cddbd v1.4PL0 Copyright (c) Steve Scherf et al.
# Submitted via: VisiTrax 2.9.5.180 - For more info visit www.synapsa.com
#
DISCID=9311380a
DTITLE=Howard and The White Boys - Live at Chord on Blues
DYEAR=2000
DGENRE=Blues
TTITLE0=Havin' a Good Time Is A Full Time Job
TTITLE1=You'll Come Back
TTITLE2=Leave the Lights On
TTITLE3=Use Me
TTITLE4=Turn On Your Lovelight
TTITLE5=Bo Diddley
TTITLE6=The Barber
TTITLE7=Bad Attitude
TTITLE8=I Got My Mojo Workin'
TTITLE9=Sex Machine
EXTD=
EXTT0=
EXTT1=
EXTT2=
EXTT3=
EXTT4=
EXTT5=
EXTT6=
EXTT7=
EXTT8=
EXTT9=
PLAYORDER=
